<svg xmlns="http://www.w3.org/2000/svg" version="1.1" xmlns:xlink="http://www.w3.org/1999/xlink" width="512" height="512" x="0" y="0" viewBox="0 0 30 30" style="enable-background:new 0 0 512 512" xml:space="preserve" class=""><g><path fill="#000000" fill-rule="evenodd" d="m10.071 18.506-.172.172-5.303-5.304a.5.5 0 0 0-.707 0L2.475 14.79a.5.5 0 0 0 0 .707l7.07 7.07c.199.199.51.199.708 0l1.94-1.939zm3.536-3.535 5.838-5.84a.5.5 0 0 1 .708 0l1.414 1.415a.5.5 0 0 1 0 .707l-5.84 5.839zm1.939 7.596-7.071-7.071a.5.5 0 0 1 0-.707l1.414-1.415a.5.5 0 0 1 .707 0l5.303 5.304 9.546-9.546a.5.5 0 0 1 .708 0l1.414 1.414a.5.5 0 0 1 0 .707L16.253 22.567a.495.495 0 0 1-.707 0z" opacity="1" data-original="#000000"></path></g></svg>