<svg xmlns="http://www.w3.org/2000/svg" version="1.1" xmlns:xlink="http://www.w3.org/1999/xlink" width="512" height="512" x="0" y="0" viewBox="0 0 32 32" style="enable-background:new 0 0 512 512" xml:space="preserve" fill-rule="evenodd" class=""><g><path d="M3.659 29.843h24.682a.75.75 0 0 0 0-1.5H3.659a.75.75 0 0 0 0 1.5zM13.5 7.093V4.407a2.25 2.25 0 0 0-2.25-2.25h-1.5a2.25 2.25 0 0 0-2.25 2.25v2.686c0 .414.336.75.75.75h4.5a.75.75 0 0 0 .75-.75zM24.5 7.093V4.407a2.25 2.25 0 0 0-2.25-2.25h-1.5a2.25 2.25 0 0 0-2.25 2.25v2.686c0 .414.336.75.75.75h4.5a.75.75 0 0 0 .75-.75z" fill="#000000" opacity="1" data-original="#000000" class=""></path><path d="M29.091 9.093a2.75 2.75 0 0 0-2.75-2.75H5.659a2.75 2.75 0 0 0-2.75 2.75V24.41a2.75 2.75 0 0 0 2.75 2.75h20.682a2.75 2.75 0 0 0 2.75-2.75zM14.25 19.185a2.584 2.584 0 0 0-2.583-2.583H8.833a2.584 2.584 0 0 0-2.583 2.583v1.057a1.796 1.796 0 0 0 1.797 1.797h4.406a1.795 1.795 0 0 0 1.797-1.797zm2.912 1.565h7.853a.75.75 0 0 0 0-1.5h-7.853a.75.75 0 0 0 0 1.5zm-4.412-1.565v1.057a.298.298 0 0 1-.297.297H8.047a.296.296 0 0 1-.297-.297v-1.057c0-.598.485-1.083 1.083-1.083h2.834c.598 0 1.083.485 1.083 1.083zm4.412-1.865h7.853a.75.75 0 0 0 0-1.5h-7.853a.75.75 0 0 0 0 1.5zm-6.912-6.565a2.376 2.376 0 1 0 2.375 2.375 2.376 2.376 0 0 0-2.375-2.375zm0 1.5a.875.875 0 1 1 0 1.75.875.875 0 0 1 0-1.75zm6.912 1.636h7.853a.75.75 0 0 0 0-1.5h-7.853a.75.75 0 0 0 0 1.5z" fill="#000000" opacity="1" data-original="#000000" class=""></path></g></svg>