<svg xmlns="http://www.w3.org/2000/svg" version="1.1" xmlns:xlink="http://www.w3.org/1999/xlink" width="512" height="512" x="0" y="0" viewBox="0 0 32 32" style="enable-background:new 0 0 512 512" xml:space="preserve"><g><path d="M30 8v16a3.009 3.009 0 0 1-3 3H5a3.009 3.009 0 0 1-3-3V8a2.879 2.879 0 0 1 .22-1.1l1.18.9.6.45 10.2 7.65a3 3 0 0 0 3.6 0L28 8.25l.6-.45 1.18-.9A2.879 2.879 0 0 1 30 8zm-3-3H5a2.962 2.962 0 0 0-1.47.39l1.07.81 1.07.8 9.73 7.3a1 1 0 0 0 1.2 0L26.33 7l1.07-.8 1.07-.81A2.962 2.962 0 0 0 27 5z" data-name="Layer 2" fill="#000000" opacity="1" data-original="#000000"></path></g></svg>