<svg xmlns="http://www.w3.org/2000/svg" version="1.1" xmlns:xlink="http://www.w3.org/1999/xlink" width="512" height="512" x="0" y="0" viewBox="0 0 512 512" style="enable-background:new 0 0 512 512" xml:space="preserve"><g><path d="M414 80H98c-5.523 0-10-4.477-10-10V44c0-24.301 19.699-44 44-44h248c24.301 0 44 19.699 44 44v26c0 5.523-4.477 10-10 10zM458 112H54c-29.776 0-54 24.224-54 54v188c0 29.776 24.224 54 54 54h34v-80c0-39.701 32.299-72 72-72h192c39.701 0 72 32.299 72 72v80h34c29.776 0 54-24.224 54-54V166c0-29.776-24.224-54-54-54zM96.02 232c-13.255 0-24.005-10.745-24.005-24s10.74-24 23.995-24h.01c13.255 0 24 10.745 24 24s-10.745 24-24 24z" fill="#000000" opacity="1" data-original="#000000"></path><path d="M352 304H160c-13.255 0-24 10.745-24 24v112c0 13.255 10.745 24 24 24h192c13.255 0 24-10.745 24-24V328c0-13.255-10.745-24-24-24z" fill="#000000" opacity="1" data-original="#000000"></path></g></svg>