<svg xmlns="http://www.w3.org/2000/svg" version="1.1" xmlns:xlink="http://www.w3.org/1999/xlink" width="512" height="512" x="0" y="0" viewBox="0 0 53 53" style="enable-background:new 0 0 512 512" xml:space="preserve"><g><path d="M37.39 6.6H8.12C5.29 6.6 3 8.9 3 11.73v16.01c0 1.42.57 2.7 1.5 3.63.92.93 2.2 1.5 3.62 1.5.34 0 .6.3.55.65l-.86 5.52c-.09.54.55.86.93.48l6.63-6.49c.11-.1.24-.16.39-.16h21.63c2.83 0 5.13-2.29 5.13-5.13V11.73c0-2.83-2.3-5.13-5.13-5.13zM14.72 19.3l-1.42 1.38c-.12.12-.18.3-.15.47l.34 1.95c.07.42-.38.75-.76.55l-1.76-.92a.51.51 0 0 0-.48 0l-1.77.92c-.38.2-.83-.12-.75-.55l.33-1.95a.523.523 0 0 0-.15-.46L6.73 19.3a.529.529 0 0 1 .29-.9l1.96-.28c.17-.02.32-.13.4-.28l.88-1.79c.19-.39.75-.39.94 0l.87 1.79c.08.15.23.26.4.28l1.96.28c.43.07.6.59.29.9zm12.03 0-1.42 1.38c-.12.12-.18.3-.15.47l.34 1.95c.07.42-.37.75-.76.55L23 22.73a.51.51 0 0 0-.48 0l-1.76.92c-.39.2-.83-.12-.76-.55l.33-1.95a.523.523 0 0 0-.15-.46l-1.42-1.39a.529.529 0 0 1 .29-.9l1.96-.28c.17-.02.32-.13.4-.28l.88-1.79c.19-.39.75-.39.94 0l.87 1.79c.08.15.23.26.4.28l1.96.28c.43.07.6.59.29.9zm12.03 0-1.42 1.38c-.12.12-.17.3-.14.47l.33 1.95c.08.42-.37.75-.76.55l-1.75-.92a.53.53 0 0 0-.49 0l-1.76.92c-.38.2-.83-.12-.76-.55l.33-1.95a.523.523 0 0 0-.15-.46l-1.42-1.39a.529.529 0 0 1 .29-.9l1.97-.28c.17-.02.31-.13.39-.28l.88-1.79c.2-.39.75-.39.94 0l.88 1.79a.5.5 0 0 0 .39.28l1.96.28c.43.07.6.59.29.9z" fill="#000000" opacity="1" data-original="#000000"></path><path d="M50 18.44v16.02c0 1.42-.58 2.7-1.5 3.63-.93.92-2.22 1.49-3.63 1.49-.34 0-.6.31-.54.65l.85 5.52c.09.54-.55.86-.93.49l-6.63-6.5a.62.62 0 0 0-.39-.16H15.6c-1.14 0-2.19-.37-3.04-1l3.79-3.71h21.04c3.93 0 7.13-3.2 7.13-7.13V13.31h.35c2.83 0 5.13 2.29 5.13 5.13z" fill="#000000" opacity="1" data-original="#000000"></path></g></svg>