<svg xmlns="http://www.w3.org/2000/svg" version="1.1" xmlns:xlink="http://www.w3.org/1999/xlink" width="512" height="512" x="0" y="0" viewBox="0 0 511.987 511.987" style="enable-background:new 0 0 512 512" xml:space="preserve"><g><path d="M508.293 100.591a15.003 15.003 0 0 0-18.586-3.258c-.533.296-1.071.586-1.611.87a111.856 111.856 0 0 0 12.293-28.246 14.998 14.998 0 0 0-5.142-15.806 14.997 14.997 0 0 0-16.565-1.359 243.556 243.556 0 0 1-51.234 21.139c-20.994-19.072-48.629-29.857-77.146-29.857-63.2 0-114.617 51.417-114.617 114.616 0 2.218.064 4.435.191 6.646-70.906-4.906-135.231-39.735-178.498-97.241a14.994 14.994 0 0 0-11.186-6.109 14.982 14.982 0 0 0-13.5 6.807c-11.781 18.157-18.008 39.241-18.008 60.971 0 19.958 5.329 39.18 14.962 55.919a14.999 14.999 0 0 0-14.922 14.597 112.426 112.426 0 0 0-.041 3.021c0 35.378 16.438 67.405 42.647 88.098a15.007 15.007 0 0 0-1.013 10.763c6.481 22.989 20.52 43.721 39.529 58.376 7.708 5.942 16.015 10.794 24.764 14.499-30.578 13.273-63.686 20.179-97.502 20.179-2.572 0-5.146-.039-7.65-.115-6.774-.188-12.836 4.148-14.808 10.627a15 15 0 0 0 6.381 17.073c47.057 29.514 101.428 45.114 157.235 45.114 79.146 0 153.554-30.821 209.519-86.785 55.966-55.964 86.787-130.373 86.787-209.52 0-.729-.003-1.459-.008-2.191a276.17 276.17 0 0 0 48.423-49.97 15 15 0 0 0-.694-18.858z" fill="#000000" opacity="1" data-original="#000000"></path></g></svg>